[NULL @ 0x12201e570] Unable to find a suitable output format for '04.divx'
Output #0, mpeg, to '04.divx':
    Stream #0:0: Video: mpeg1video, yuv420p, 640x480, q=2-31, 400 kb/s, 25 tbn
[mpeg @ 0x12201f580] VBV buffer size not set, using default size of 230KB
If you want the mpeg file to be compliant to some specification
Like DVD, VCD or others, make sure you set the correct buffer size
Could not deduce output format from file extension: using MPEG.
pts:0 pts_time:0 dts:-3600 dts_time:-0.04 duration:0 duration_time:0 stream_index:0
[mpeg @ 0x12201f580] buffer underflow st=0 bufi=9565 size=34825
[mpeg @ 0x12201f580] buffer underflow st=0 bufi=11606 size=34825
[mpeg @ 0x12201f580] buffer underflow st=0 bufi=13647 size=34825
[mpeg @ 0x12201f580] buffer underflow st=0 bufi=15688 size=34825
[mpeg @ 0x12201f580] buffer underflow st=0 bufi=17729 size=34825
[mpeg @ 0x12201f580] buffer underflow st=0 bufi=19770 size=34825
[mpeg @ 0x12201f580] buffer underflow st=0 bufi=21811 size=34825
[mpeg @ 0x12201f580] buffer underflow st=0 bufi=23852 size=34825
[mpeg @ 0x12201f580] buffer underflow st=0 bufi=25893 size=34825
[mpeg @ 0x12201f580] buffer underflow st=0 bufi=27934 size=34825
[mpeg @ 0x12201f580] buffer underflow st=0 bufi=29975 size=34825
[mpeg @ 0x12201f580] buffer underflow st=0 bufi=32016 size=34825
[mpeg @ 0x12201f580] buffer underflow st=0 bufi=34057 size=34825
pts:3600 pts_time:0.04 dts:0 dts_time:0 duration:0 duration_time:0 stream_index:0
[mpeg @ 0x12201f580] buffer underflow st=0 bufi=1264 size=15967
[mpeg @ 0x12201f580] buffer underflow st=0 bufi=3305 size=15967
[mpeg @ 0x12201f580] buffer underflow st=0 bufi=5346 size=15967
[mpeg @ 0x12201f580] buffer underflow st=0 bufi=7387 size=15967
[mpeg @ 0x12201f580] buffer underflow st=0 bufi=9428 size=15967
[mpeg @ 0x12201f580] buffer underflow st=0 bufi=11469 size=15967
[mpeg @ 0x12201f580] buffer underflow st=0 bufi=13510 size=15967
[mpeg @ 0x12201f580] buffer underflow st=0 bufi=15551 size=15967
pts:7200 pts_time:0.08 dts:3600 dts_time:0.04 duration:0 duration_time:0 stream_index:0
[mpeg @ 0x12201f580] buffer underflow st=0 bufi=1616 size=35057
[mpeg @ 0x12201f580] buffer underflow st=0 bufi=3657 size=35057
[mpeg @ 0x12201f580] buffer underflow st=0 bufi=5698 size=35057
[mpeg @ 0x12201f580] buffer underflow st=0 bufi=7739 size=35057
[mpeg @ 0x12201f580] buffer underflow st=0 bufi=9780 size=35057
[mpeg @ 0x12201f580] buffer underflow st=0 bufi=11821 size=35057
[mpeg @ 0x12201f580] buffer underflow st=0 bufi=13862 size=35057
[mpeg @ 0x12201f580] buffer underflow st=0 bufi=15903 size=35057
[mpeg @ 0x12201f580] buffer underflow st=0 bufi=17944 size=35057
[mpeg @ 0x12201f580] buffer underflow st=0 bufi=19985 size=35057
[mpeg @ 0x12201f580] buffer underflow st=0 bufi=22026 size=35057
[mpeg @ 0x12201f580] buffer underflow st=0 bufi=24067 size=35057
[mpeg @ 0x12201f580] buffer underflow st=0 bufi=26108 size=35057
[mpeg @ 0x12201f580] buffer underflow st=0 bufi=28149 size=35057
[mpeg @ 0x12201f580] buffer underflow st=0 bufi=30190 size=35057
[mpeg @ 0x12201f580] buffer underflow st=0 bufi=32231 size=35057
[mpeg @ 0x12201f580] buffer underflow st=0 bufi=34272 size=35057
pts:10800 pts_time:0.12 dts:7200 dts_time:0.08 duration:0 duration_time:0 stream_index:0
pts:14400 pts_time:0.16 dts:10800 dts_time:0.12 duration:0 duration_time:0 stream_index:0
pts:18000 pts_time:0.2 dts:14400 dts_time:0.16 duration:0 duration_time:0 stream_index:0
[mpeg @ 0x12201f580] buffer underflow st=0 bufi=177 size=390
pts:21600 pts_time:0.24 dts:18000 dts_time:0.2 duration:0 duration_time:0 stream_index:0
pts:25200 pts_time:0.28 dts:21600 dts_time:0.24 duration:0 duration_time:0 stream_index:0
[mpeg @ 0x12201f580] buffer underflow st=0 bufi=1168 size=1462
pts:28800 pts_time:0.32 dts:25200 dts_time:0.28 duration:0 duration_time:0 stream_index:0
pts:32400 pts_time:0.36 dts:28800 dts_time:0.32 duration:0 duration_time:0 stream_index:0
pts:36000 pts_time:0.4 dts:32400 dts_time:0.36 duration:0 duration_time:0 stream_index:0
[mpeg @ 0x12201f580] buffer underflow st=0 bufi=218 size=885
pts:39600 pts_time:0.44 dts:36000 dts_time:0.4 duration:0 duration_time:0 stream_index:0
[mpeg @ 0x12201f580] buffer underflow st=0 bufi=1365 size=23068
[mpeg @ 0x12201f580] buffer underflow st=0 bufi=3406 size=23068
[mpeg @ 0x12201f580] buffer underflow st=0 bufi=5447 size=23068
[mpeg @ 0x12201f580] buffer underflow st=0 bufi=7488 size=23068
[mpeg @ 0x12201f580] buffer underflow st=0 bufi=9529 size=23068
[mpeg @ 0x12201f580] buffer underflow st=0 bufi=11570 size=23068
[mpeg @ 0x12201f580] buffer underflow st=0 bufi=13611 size=23068
[mpeg @ 0x12201f580] buffer underflow st=0 bufi=15652 size=23068
[mpeg @ 0x12201f580] buffer underflow st=0 bufi=17693 size=23068
[mpeg @ 0x12201f580] buffer underflow st=0 bufi=19734 size=23068
[mpeg @ 0x12201f580] buffer underflow st=0 bufi=21775 size=23068
pts:43200 pts_time:0.48 dts:39600 dts_time:0.44 duration:0 duration_time:0 stream_index:0
[mpeg @ 0x12201f580] buffer underflow st=0 bufi=739 size=14306
[mpeg @ 0x12201f580] buffer underflow st=0 bufi=2780 size=14306
[mpeg @ 0x12201f580] buffer underflow st=0 bufi=4821 size=14306
[mpeg @ 0x12201f580] buffer underflow st=0 bufi=6862 size=14306
[mpeg @ 0x12201f580] buffer underflow st=0 bufi=8903 size=14306
[mpeg @ 0x12201f580] buffer underflow st=0 bufi=10944 size=14306
[mpeg @ 0x12201f580] buffer underflow st=0 bufi=12985 size=14306
pts:46800 pts_time:0.52 dts:43200 dts_time:0.48 duration:0 duration_time:0 stream_index:0
[mpeg @ 0x12201f580] buffer underflow st=0 bufi=711 size=1111
pts:50400 pts_time:0.56 dts:46800 dts_time:0.52 duration:0 duration_time:0 stream_index:0
[mpeg @ 0x12201f580] buffer underflow st=0 bufi=1632 size=10177
[mpeg @ 0x12201f580] buffer underflow st=0 bufi=3673 size=10177
[mpeg @ 0x12201f580] buffer underflow st=0 bufi=5714 size=10177
[mpeg @ 0x12201f580] buffer underflow st=0 bufi=7755 size=10177
[mpeg @ 0x12201f580] buffer underflow st=0 bufi=9796 size=10177
pts:54000 pts_time:0.6 dts:50400 dts_time:0.56 duration:0 duration_time:0 stream_index:0
pts:57600 pts_time:0.64 dts:54000 dts_time:0.6 duration:0 duration_time:0 stream_index:0
[mpeg @ 0x12201f580] buffer underflow st=0 bufi=1014 size=5414
[mpeg @ 0x12201f580] buffer underflow st=0 bufi=3055 size=5414
[mpeg @ 0x12201f580] buffer underflow st=0 bufi=5096 size=5414
pts:61200 pts_time:0.68 dts:57600 dts_time:0.64 duration:0 duration_time:0 stream_index:0
pts:64800 pts_time:0.72 dts:61200 dts_time:0.68 duration:0 duration_time:0 stream_index:0
[mpeg @ 0x12201f580] buffer underflow st=0 bufi=961 size=6013
[mpeg @ 0x12201f580] buffer underflow st=0 bufi=3002 size=6013
[mpeg @ 0x12201f580] buffer underflow st=0 bufi=5043 size=6013
pts:68400 pts_time:0.76 dts:64800 dts_time:0.72 duration:0 duration_time:0 stream_index:0
pts:72000 pts_time:0.8 dts:68400 dts_time:0.76 duration:0 duration_time:0 stream_index:0
[mpeg @ 0x12201f580] buffer underflow st=0 bufi=528 size=4934
[mpeg @ 0x12201f580] buffer underflow st=0 bufi=2569 size=4934
[mpeg @ 0x12201f580] buffer underflow st=0 bufi=4610 size=4934
pts:75600 pts_time:0.84 dts:72000 dts_time:0.8 duration:0 duration_time:0 stream_index:0
pts:79200 pts_time:0.88 dts:75600 dts_time:0.84 duration:0 duration_time:0 stream_index:0
[mpeg @ 0x12201f580] buffer underflow st=0 bufi=777 size=6094
[mpeg @ 0x12201f580] buffer underflow st=0 bufi=2818 size=6094
[mpeg @ 0x12201f580] buffer underflow st=0 bufi=4859 size=6094
pts:82800 pts_time:0.92 dts:79200 dts_time:0.88 duration:0 duration_time:0 stream_index:0
[mpeg @ 0x12201f580] buffer underflow st=0 bufi=797 size=13446
[mpeg @ 0x12201f580] buffer underflow st=0 bufi=2838 size=13446
[mpeg @ 0x12201f580] buffer underflow st=0 bufi=4879 size=13446
[mpeg @ 0x12201f580] buffer underflow st=0 bufi=6920 size=13446
[mpeg @ 0x12201f580] buffer underflow st=0 bufi=8961 size=13446
[mpeg @ 0x12201f580] buffer underflow st=0 bufi=11002 size=13446
[mpeg @ 0x12201f580] buffer underflow st=0 bufi=13043 size=13446
pts:86400 pts_time:0.96 dts:82800 dts_time:0.92 duration:0 duration_time:0 stream_index:0
[mpeg @ 0x12201f580] buffer underflow st=0 bufi=1629 size=2571
pts:90000 pts_time:1 dts:86400 dts_time:0.96 duration:0 duration_time:0 stream_index:0
pts:93600 pts_time:1.04 dts:90000 dts_time:1 duration:0 duration_time:0 stream_index:0
[mpeg @ 0x12201f580] buffer underflow st=0 bufi=630 size=3921
[mpeg @ 0x12201f580] buffer underflow st=0 bufi=2671 size=3921
pts:97200 pts_time:1.08 dts:93600 dts_time:1.04 duration:0 duration_time:0 stream_index:0
pts:100800 pts_time:1.12 dts:97200 dts_time:1.08 duration:0 duration_time:0 stream_index:0
[mpeg @ 0x12201f580] buffer underflow st=0 bufi=310 size=2023
pts:104400 pts_time:1.16 dts:100800 dts_time:1.12 duration:0 duration_time:0 stream_index:0
[mpeg @ 0x12201f580] buffer underflow st=0 bufi=319 size=731
pts:108000 pts_time:1.2 dts:104400 dts_time:1.16 duration:0 duration_time:0 stream_index:0
pts:111600 pts_time:1.24 dts:108000 dts_time:1.2 duration:0 duration_time:0 stream_index:0
[mpeg @ 0x12201f580] buffer underflow st=0 bufi=82 size=1618
pts:115200 pts_time:1.28 dts:111600 dts_time:1.24 duration:0 duration_time:0 stream_index:0
[mpeg @ 0x12201f580] buffer underflow st=0 bufi=484 size=5028
[mpeg @ 0x12201f580] buffer underflow st=0 bufi=2525 size=5028
[mpeg @ 0x12201f580] buffer underflow st=0 bufi=4566 size=5028
pts:118800 pts_time:1.32 dts:115200 dts_time:1.28 duration:0 duration_time:0 stream_index:0
pts:122400 pts_time:1.36 dts:118800 dts_time:1.32 duration:0 duration_time:0 stream_index:0
pts:126000 pts_time:1.4 dts:122400 dts_time:1.36 duration:0 duration_time:0 stream_index:0
[mpeg @ 0x12201f580] buffer underflow st=0 bufi=254 size=15373
[mpeg @ 0x12201f580] buffer underflow st=0 bufi=2295 size=15373
[mpeg @ 0x12201f580] buffer underflow st=0 bufi=4336 size=15373
[mpeg @ 0x12201f580] buffer underflow st=0 bufi=6377 size=15373
[mpeg @ 0x12201f580] buffer underflow st=0 bufi=8418 size=15373
[mpeg @ 0x12201f580] buffer underflow st=0 bufi=10459 size=15373
[mpeg @ 0x12201f580] buffer underflow st=0 bufi=12500 size=15373
[mpeg @ 0x12201f580] buffer underflow st=0 bufi=14541 size=15373
pts:129600 pts_time:1.44 dts:126000 dts_time:1.4 duration:0 duration_time:0 stream_index:0
pts:133200 pts_time:1.48 dts:129600 dts_time:1.44 duration:0 duration_time:0 stream_index:0
[mpeg @ 0x12201f580] buffer underflow st=0 bufi=853 size=1481
pts:136800 pts_time:1.52 dts:133200 dts_time:1.48 duration:0 duration_time:0 stream_index:0
pts:140400 pts_time:1.56 dts:136800 dts_time:1.52 duration:0 duration_time:0 stream_index:0
[mpeg @ 0x12201f580] buffer underflow st=0 bufi=514 size=652
pts:144000 pts_time:1.6 dts:140400 dts_time:1.56 duration:0 duration_time:0 stream_index:0
[mpeg @ 0x12201f580] buffer underflow st=0 bufi=1894 size=3305
pts:147600 pts_time:1.64 dts:144000 dts_time:1.6 duration:0 duration_time:0 stream_index:0
[mpeg @ 0x12201f580] buffer underflow st=0 bufi=621 size=687
pts:151200 pts_time:1.68 dts:147600 dts_time:1.64 duration:0 duration_time:0 stream_index:0
pts:154800 pts_time:1.72 dts:151200 dts_time:1.68 duration:0 duration_time:0 stream_index:0
[mpeg @ 0x12201f580] buffer underflow st=0 bufi=1549 size=1738
pts:158400 pts_time:1.76 dts:154800 dts_time:1.72 duration:0 duration_time:0 stream_index:0
pts:162000 pts_time:1.8 dts:158400 dts_time:1.76 duration:0 duration_time:0 stream_index:0
pts:165600 pts_time:1.84 dts:162000 dts_time:1.8 duration:0 duration_time:0 stream_index:0
[mpeg @ 0x12201f580] buffer underflow st=0 bufi=363 size=2312
pts:169200 pts_time:1.88 dts:165600 dts_time:1.84 duration:0 duration_time:0 stream_index:0
[mpeg @ 0x12201f580] buffer underflow st=0 bufi=83 size=22033
[mpeg @ 0x12201f580] buffer underflow st=0 bufi=2124 size=22033
[mpeg @ 0x12201f580] buffer underflow st=0 bufi=4165 size=22033
[mpeg @ 0x12201f580] buffer underflow st=0 bufi=6206 size=22033
[mpeg @ 0x12201f580] buffer underflow st=0 bufi=8247 size=22033
[mpeg @ 0x12201f580] buffer underflow st=0 bufi=10288 size=22033
[mpeg @ 0x12201f580] buffer underflow st=0 bufi=12329 size=22033
[mpeg @ 0x12201f580] buffer underflow st=0 bufi=14370 size=22033
[mpeg @ 0x12201f580] buffer underflow st=0 bufi=16411 size=22033
[mpeg @ 0x12201f580] buffer underflow st=0 bufi=18452 size=22033
[mpeg @ 0x12201f580] buffer underflow st=0 bufi=20493 size=22033
pts:172800 pts_time:1.92 dts:169200 dts_time:1.88 duration:0 duration_time:0 stream_index:0
pts:176400 pts_time:1.96 dts:172800 dts_time:1.92 duration:0 duration_time:0 stream_index:0
[mpeg @ 0x12201f580] buffer underflow st=0 bufi=200 size=406
pts:180000 pts_time:2 dts:176400 dts_time:1.96 duration:0 duration_time:0 stream_index:0
pts:183600 pts_time:2.04 dts:180000 dts_time:2 duration:0 duration_time:0 stream_index:0
pts:187200 pts_time:2.08 dts:183600 dts_time:2.04 duration:0 duration_time:0 stream_index:0
[mpeg @ 0x12201f580] buffer underflow st=0 bufi=111 size=682
pts:190800 pts_time:2.12 dts:187200 dts_time:2.08 duration:0 duration_time:0 stream_index:0
[mpeg @ 0x12201f580] buffer underflow st=0 bufi=1461 size=2704
pts:194400 pts_time:2.16 dts:190800 dts_time:2.12 duration:0 duration_time:0 stream_index:0
pts:198000 pts_time:2.2 dts:194400 dts_time:2.16 duration:0 duration_time:0 stream_index:0
[mpeg @ 0x12201f580] buffer underflow st=0 bufi=355 size=450
pts:201600 pts_time:2.24 dts:198000 dts_time:2.2 duration:0 duration_time:0 stream_index:0
pts:205200 pts_time:2.28 dts:201600 dts_time:2.24 duration:0 duration_time:0 stream_index:0
pts:208800 pts_time:2.32 dts:205200 dts_time:2.28 duration:0 duration_time:0 stream_index:0
[mpeg @ 0x12201f580] buffer underflow st=0 bufi=109 size=1171
pts:212400 pts_time:2.36 dts:208800 dts_time:2.32 duration:0 duration_time:0 stream_index:0
[mpeg @ 0x12201f580] buffer underflow st=0 bufi=970 size=28903
[mpeg @ 0x12201f580] buffer underflow st=0 bufi=3011 size=28903
[mpeg @ 0x12201f580] buffer underflow st=0 bufi=5052 size=28903
[mpeg @ 0x12201f580] buffer underflow st=0 bufi=7093 size=28903
[mpeg @ 0x12201f580] buffer underflow st=0 bufi=9134 size=28903
[mpeg @ 0x12201f580] buffer underflow st=0 bufi=11175 size=28903
[mpeg @ 0x12201f580] buffer underflow st=0 bufi=13216 size=28903
[mpeg @ 0x12201f580] buffer underflow st=0 bufi=15257 size=28903
[mpeg @ 0x12201f580] buffer underflow st=0 bufi=17298 size=28903
[mpeg @ 0x12201f580] buffer underflow st=0 bufi=19339 size=28903
[mpeg @ 0x12201f580] buffer underflow st=0 bufi=21380 size=28903
[mpeg @ 0x12201f580] buffer underflow st=0 bufi=23421 size=28903
[mpeg @ 0x12201f580] buffer underflow st=0 bufi=25462 size=28903
[mpeg @ 0x12201f580] buffer underflow st=0 bufi=27503 size=28903
pts:216000 pts_time:2.4 dts:212400 dts_time:2.36 duration:0 duration_time:0 stream_index:0
[mpeg @ 0x12201f580] buffer underflow st=0 bufi=632 size=4801
[mpeg @ 0x12201f580] buffer underflow st=0 bufi=2673 size=4801
[mpeg @ 0x12201f580] buffer underflow st=0 bufi=4714 size=4801
pts:219600 pts_time:2.44 dts:216000 dts_time:2.4 duration:0 duration_time:0 stream_index:0
pts:223200 pts_time:2.48 dts:219600 dts_time:2.44 duration:0 duration_time:0 stream_index:0
pts:226800 pts_time:2.52 dts:223200 dts_time:2.48 duration:0 duration_time:0 stream_index:0
pts:230400 pts_time:2.56 dts:226800 dts_time:2.52 duration:0 duration_time:0 stream_index:0
[mpeg @ 0x12201f580] buffer underflow st=0 bufi=106 size=1300
pts:234000 pts_time:2.6 dts:230400 dts_time:2.56 duration:0 duration_time:0 stream_index:0
[mpeg @ 0x12201f580] buffer underflow st=0 bufi=838 size=1117
pts:237600 pts_time:2.64 dts:234000 dts_time:2.6 duration:0 duration_time:0 stream_index:0
pts:241200 pts_time:2.68 dts:237600 dts_time:2.64 duration:0 duration_time:0 stream_index:0
[mpeg @ 0x12201f580] buffer underflow st=0 bufi=1395 size=2535
pts:244800 pts_time:2.72 dts:241200 dts_time:2.68 duration:0 duration_time:0 stream_index:0
pts:248400 pts_time:2.76 dts:244800 dts_time:2.72 duration:0 duration_time:0 stream_index:0
pts:252000 pts_time:2.8 dts:248400 dts_time:2.76 duration:0 duration_time:0 stream_index:0
[mpeg @ 0x12201f580] buffer underflow st=0 bufi=370 size=3306
[mpeg @ 0x12201f580] buffer underflow st=0 bufi=2411 size=3306
pts:255600 pts_time:2.84 dts:252000 dts_time:2.8 duration:0 duration_time:0 stream_index:0
[mpeg @ 0x12201f580] buffer underflow st=0 bufi=1137 size=32054
[mpeg @ 0x12201f580] buffer underflow st=0 bufi=3178 size=32054
[mpeg @ 0x12201f580] buffer underflow st=0 bufi=5219 size=32054
[mpeg @ 0x12201f580] buffer underflow st=0 bufi=7260 size=32054
[mpeg @ 0x12201f580] buffer underflow st=0 bufi=9301 size=32054
[mpeg @ 0x12201f580] buffer underflow st=0 bufi=11342 size=32054
[mpeg @ 0x12201f580] buffer underflow st=0 bufi=13383 size=32054
[mpeg @ 0x12201f580] buffer underflow st=0 bufi=15424 size=32054
[mpeg @ 0x12201f580] buffer underflow st=0 bufi=17465 size=32054
[mpeg @ 0x12201f580] buffer underflow st=0 bufi=19506 size=32054
[mpeg @ 0x12201f580] buffer underflow st=0 bufi=21547 size=32054
[mpeg @ 0x12201f580] buffer underflow st=0 bufi=23588 size=32054
[mpeg @ 0x12201f580] buffer underflow st=0 bufi=25629 size=32054
[mpeg @ 0x12201f580] buffer underflow st=0 bufi=27670 size=32054
[mpeg @ 0x12201f580] buffer underflow st=0 bufi=29711 size=32054
[mpeg @ 0x12201f580] buffer underflow st=0 bufi=31752 size=32054
pts:259200 pts_time:2.88 dts:255600 dts_time:2.84 duration:0 duration_time:0 stream_index:0
pts:262800 pts_time:2.92 dts:259200 dts_time:2.88 duration:0 duration_time:0 stream_index:0
pts:266400 pts_time:2.96 dts:262800 dts_time:2.92 duration:0 duration_time:0 stream_index:0
pts:270000 pts_time:3 dts:266400 dts_time:2.96 duration:0 duration_time:0 stream_index:0
[mpeg @ 0x12201f580] buffer underflow st=0 bufi=1132 size=1544
pts:273600 pts_time:3.04 dts:270000 dts_time:3 duration:0 duration_time:0 stream_index:0
pts:277200 pts_time:3.08 dts:273600 dts_time:3.04 duration:0 duration_time:0 stream_index:0
pts:280800 pts_time:3.12 dts:277200 dts_time:3.08 duration:0 duration_time:0 stream_index:0
pts:284400 pts_time:3.16 dts:280800 dts_time:3.12 duration:0 duration_time:0 stream_index:0
[mpeg @ 0x12201f580] buffer underflow st=0 bufi=136 size=714
pts:288000 pts_time:3.2 dts:284400 dts_time:3.16 duration:0 duration_time:0 stream_index:0
pts:291600 pts_time:3.24 dts:288000 dts_time:3.2 duration:0 duration_time:0 stream_index:0
pts:295200 pts_time:3.28 dts:291600 dts_time:3.24 duration:0 duration_time:0 stream_index:0
[mpeg @ 0x12201f580] buffer underflow st=0 bufi=442 size=735
pts:298800 pts_time:3.32 dts:295200 dts_time:3.28 duration:0 duration_time:0 stream_index:0
[mpeg @ 0x12201f580] buffer underflow st=0 bufi=1739 size=33637
[mpeg @ 0x12201f580] buffer underflow st=0 bufi=3780 size=33637
[mpeg @ 0x12201f580] buffer underflow st=0 bufi=5821 size=33637
[mpeg @ 0x12201f580] buffer underflow st=0 bufi=7862 size=33637
[mpeg @ 0x12201f580] buffer underflow st=0 bufi=9903 size=33637
[mpeg @ 0x12201f580] buffer underflow st=0 bufi=11944 size=33637
[mpeg @ 0x12201f580] buffer underflow st=0 bufi=13985 size=33637
[mpeg @ 0x12201f580] buffer underflow st=0 bufi=16026 size=33637
[mpeg @ 0x12201f580] buffer underflow st=0 bufi=18067 size=33637
[mpeg @ 0x12201f580] buffer underflow st=0 bufi=20108 size=33637
[mpeg @ 0x12201f580] buffer underflow st=0 bufi=22149 size=33637
[mpeg @ 0x12201f580] buffer underflow st=0 bufi=24190 size=33637
[mpeg @ 0x12201f580] buffer underflow st=0 bufi=26231 size=33637
[mpeg @ 0x12201f580] buffer underflow st=0 bufi=28272 size=33637
[mpeg @ 0x12201f580] buffer underflow st=0 bufi=30313 size=33637
[mpeg @ 0x12201f580] buffer underflow st=0 bufi=32354 size=33637
pts:302400 pts_time:3.36 dts:298800 dts_time:3.32 duration:0 duration_time:0 stream_index:0
pts:306000 pts_time:3.4 dts:302400 dts_time:3.36 duration:0 duration_time:0 stream_index:0
[mpeg @ 0x12201f580] buffer underflow st=0 bufi=528 size=1186
pts:309600 pts_time:3.44 dts:306000 dts_time:3.4 duration:0 duration_time:0 stream_index:0
pts:313200 pts_time:3.48 dts:309600 dts_time:3.44 duration:0 duration_time:0 stream_index:0
pts:316800 pts_time:3.52 dts:313200 dts_time:3.48 duration:0 duration_time:0 stream_index:0
[mpeg @ 0x12201f580] buffer underflow st=0 bufi=704 size=989
pts:320400 pts_time:3.56 dts:316800 dts_time:3.52 duration:0 duration_time:0 stream_index:0
pts:324000 pts_time:3.6 dts:320400 dts_time:3.56 duration:0 duration_time:0 stream_index:0
pts:327600 pts_time:3.64 dts:324000 dts_time:3.6 duration:0 duration_time:0 stream_index:0
[mpeg @ 0x12201f580] buffer underflow st=0 bufi=1018 size=1165
pts:331200 pts_time:3.68 dts:327600 dts_time:3.64 duration:0 duration_time:0 stream_index:0
pts:334800 pts_time:3.72 dts:331200 dts_time:3.68 duration:0 duration_time:0 stream_index:0
pts:338400 pts_time:3.76 dts:334800 dts_time:3.72 duration:0 duration_time:0 stream_index:0
pts:342000 pts_time:3.8 dts:338400 dts_time:3.76 duration:0 duration_time:0 stream_index:0
[mpeg @ 0x12201f580] buffer underflow st=0 bufi=423 size=41214
[mpeg @ 0x12201f580] buffer underflow st=0 bufi=2464 size=41214
[mpeg @ 0x12201f580] buffer underflow st=0 bufi=4505 size=41214
[mpeg @ 0x12201f580] buffer underflow st=0 bufi=6546 size=41214
[mpeg @ 0x12201f580] buffer underflow st=0 bufi=8587 size=41214
[mpeg @ 0x12201f580] buffer underflow st=0 bufi=10628 size=41214
[mpeg @ 0x12201f580] buffer underflow st=0 bufi=12669 size=41214
[mpeg @ 0x12201f580] buffer underflow st=0 bufi=14710 size=41214
[mpeg @ 0x12201f580] buffer underflow st=0 bufi=16751 size=41214
[mpeg @ 0x12201f580] buffer underflow st=0 bufi=18792 size=41214
[mpeg @ 0x12201f580] buffer underflow st=0 bufi=20833 size=41214
[mpeg @ 0x12201f580] buffer underflow st=0 bufi=22862 size=41214
[mpeg @ 0x12201f580] buffer underflow st=0 bufi=24903 size=41214
[mpeg @ 0x12201f580] buffer underflow st=0 bufi=26944 size=41214
[mpeg @ 0x12201f580] buffer underflow st=0 bufi=28985 size=41214
[mpeg @ 0x12201f580] buffer underflow st=0 bufi=31026 size=41214
[mpeg @ 0x12201f580] buffer underflow st=0 bufi=33067 size=41214
[mpeg @ 0x12201f580] buffer underflow st=0 bufi=35108 size=41214
[mpeg @ 0x12201f580] buffer underflow st=0 bufi=37149 size=41214
[mpeg @ 0x12201f580] buffer underflow st=0 bufi=39190 size=41214
pts:345600 pts_time:3.84 dts:342000 dts_time:3.8 duration:0 duration_time:0 stream_index:0
[mpeg @ 0x12201f580] buffer underflow st=0 bufi=8 size=89
pts:349200 pts_time:3.88 dts:345600 dts_time:3.84 duration:0 duration_time:0 stream_index:0
pts:352800 pts_time:3.92 dts:349200 dts_time:3.88 duration:0 duration_time:0 stream_index:0
pts:356400 pts_time:3.96 dts:352800 dts_time:3.92 duration:0 duration_time:0 stream_index:0
pts:360000 pts_time:4 dts:356400 dts_time:3.96 duration:0 duration_time:0 stream_index:0
[mpeg @ 0x12201f580] buffer underflow st=0 bufi=287 size=21411
[mpeg @ 0x12201f580] buffer underflow st=0 bufi=2328 size=21411
[mpeg @ 0x12201f580] buffer underflow st=0 bufi=4369 size=21411
[mpeg @ 0x12201f580] buffer underflow st=0 bufi=6410 size=21411
[mpeg @ 0x12201f580] buffer underflow st=0 bufi=8451 size=21411
[mpeg @ 0x12201f580] buffer underflow st=0 bufi=10492 size=21411
[mpeg @ 0x12201f580] buffer underflow st=0 bufi=12533 size=21411
[mpeg @ 0x12201f580] buffer underflow st=0 bufi=14574 size=21411
[mpeg @ 0x12201f580] buffer underflow st=0 bufi=16615 size=21411
[mpeg @ 0x12201f580] buffer underflow st=0 bufi=18656 size=21411
[mpeg @ 0x12201f580] buffer underflow st=0 bufi=20697 size=21411
pts:363600 pts_time:4.04 dts:360000 dts_time:4 duration:0 duration_time:0 stream_index:0
[mpeg @ 0x12201f580] buffer underflow st=0 bufi=1318 size=4032
[mpeg @ 0x12201f580] buffer underflow st=0 bufi=3359 size=4032
pts:367200 pts_time:4.08 dts:363600 dts_time:4.04 duration:0 duration_time:0 stream_index:0
[mpeg @ 0x12201f580] buffer underflow st=0 bufi=1359 size=3782
[mpeg @ 0x12201f580] buffer underflow st=0 bufi=3400 size=3782
pts:370800 pts_time:4.12 dts:367200 dts_time:4.08 duration:0 duration_time:0 stream_index:0
[mpeg @ 0x12201f580] buffer underflow st=0 bufi=1650 size=2605
pts:374400 pts_time:4.16 dts:370800 dts_time:4.12 duration:0 duration_time:0 stream_index:0
[mpeg @ 0x12201f580] buffer underflow st=0 bufi=1077 size=2977
pts:378000 pts_time:4.2 dts:374400 dts_time:4.16 duration:0 duration_time:0 stream_index:0
[mpeg @ 0x12201f580] buffer underflow st=0 bufi=132 size=2594
[mpeg @ 0x12201f580] buffer underflow st=0 bufi=2173 size=2594
pts:381600 pts_time:4.24 dts:378000 dts_time:4.2 duration:0 duration_time:0 stream_index:0
[mpeg @ 0x12201f580] buffer underflow st=0 bufi=1611 size=2752
pts:385200 pts_time:4.28 dts:381600 dts_time:4.24 duration:0 duration_time:0 stream_index:0
[mpeg @ 0x12201f580] buffer underflow st=0 bufi=891 size=11435
[mpeg @ 0x12201f580] buffer underflow st=0 bufi=2932 size=11435
[mpeg @ 0x12201f580] buffer underflow st=0 bufi=4973 size=11435
[mpeg @ 0x12201f580] buffer underflow st=0 bufi=7014 size=11435
[mpeg @ 0x12201f580] buffer underflow st=0 bufi=9055 size=11435
[mpeg @ 0x12201f580] buffer underflow st=0 bufi=11096 size=11435
pts:388800 pts_time:4.32 dts:385200 dts_time:4.28 duration:0 duration_time:0 stream_index:0
[mpeg @ 0x12201f580] buffer underflow st=0 bufi=1693 size=3156
pts:392400 pts_time:4.36 dts:388800 dts_time:4.32 duration:0 duration_time:0 stream_index:0
[mpeg @ 0x12201f580] buffer underflow st=0 bufi=569 size=1936
pts:396000 pts_time:4.4 dts:392400 dts_time:4.36 duration:0 duration_time:0 stream_index:0
[mpeg @ 0x12201f580] buffer underflow st=0 bufi=665 size=2785
[mpeg @ 0x12201f580] buffer underflow st=0 bufi=2706 size=2785
pts:399600 pts_time:4.44 dts:396000 dts_time:4.4 duration:0 duration_time:0 stream_index:0
pts:403200 pts_time:4.48 dts:399600 dts_time:4.44 duration:0 duration_time:0 stream_index:0
[mpeg @ 0x12201f580] buffer underflow st=0 bufi=457 size=2341
pts:406800 pts_time:4.52 dts:403200 dts_time:4.48 duration:0 duration_time:0 stream_index:0
[mpeg @ 0x12201f580] buffer underflow st=0 bufi=148 size=2068
pts:410400 pts_time:4.56 dts:406800 dts_time:4.52 duration:0 duration_time:0 stream_index:0
[mpeg @ 0x12201f580] buffer underflow st=0 bufi=112 size=1806
pts:414000 pts_time:4.6 dts:410400 dts_time:4.56 duration:0 duration_time:0 stream_index:0
[mpeg @ 0x12201f580] buffer underflow st=0 bufi=338 size=2390
[mpeg @ 0x12201f580] buffer underflow st=0 bufi=2379 size=2390
pts:417600 pts_time:4.64 dts:414000 dts_time:4.6 duration:0 duration_time:0 stream_index:0
pts:421200 pts_time:4.68 dts:417600 dts_time:4.64 duration:0 duration_time:0 stream_index:0
[mpeg @ 0x12201f580] buffer underflow st=0 bufi=47 size=2381
[mpeg @ 0x12201f580] buffer underflow st=0 bufi=2088 size=2381
pts:424800 pts_time:4.72 dts:421200 dts_time:4.68 duration:0 duration_time:0 stream_index:0
[mpeg @ 0x12201f580] buffer underflow st=0 bufi=1739 size=2022
pts:428400 pts_time:4.76 dts:424800 dts_time:4.72 duration:0 duration_time:0 stream_index:0
[mpeg @ 0x12201f580] buffer underflow st=0 bufi=1749 size=9018
[mpeg @ 0x12201f580] buffer underflow st=0 bufi=3790 size=9018
[mpeg @ 0x12201f580] buffer underflow st=0 bufi=5831 size=9018
[mpeg @ 0x12201f580] buffer underflow st=0 bufi=7872 size=9018
pts:432000 pts_time:4.8 dts:428400 dts_time:4.76 duration:0 duration_time:0 stream_index:0
[mpeg @ 0x12201f580] buffer underflow st=0 bufi=859 size=1834
pts:435600 pts_time:4.84 dts:432000 dts_time:4.8 duration:0 duration_time:0 stream_index:0
[mpeg @ 0x12201f580] buffer underflow st=0 bufi=1057 size=2034
pts:439200 pts_time:4.88 dts:435600 dts_time:4.84 duration:0 duration_time:0 stream_index:0
[mpeg @ 0x12201f580] buffer underflow st=0 bufi=1055 size=2775
pts:442800 pts_time:4.92 dts:439200 dts_time:4.88 duration:0 duration_time:0 stream_index:0
[mpeg @ 0x12201f580] buffer underflow st=0 bufi=312 size=1690
pts:446400 pts_time:4.96 dts:442800 dts_time:4.92 duration:0 duration_time:0 stream_index:0
[mpeg @ 0x12201f580] buffer underflow st=0 bufi=654 size=1865
pts:450000 pts_time:5 dts:446400 dts_time:4.96 duration:0 duration_time:0 stream_index:0
[mpeg @ 0x12201f580] buffer underflow st=0 bufi=821 size=2541
pts:453600 pts_time:5.04 dts:450000 dts_time:5 duration:0 duration_time:0 stream_index:0
[mpeg @ 0x12201f580] buffer underflow st=0 bufi=312 size=2042
pts:457200 pts_time:5.08 dts:453600 dts_time:5.04 duration:0 duration_time:0 stream_index:0
[mpeg @ 0x12201f580] buffer underflow st=0 bufi=302 size=2216
pts:460800 pts_time:5.12 dts:457200 dts_time:5.08 duration:0 duration_time:0 stream_index:0
[mpeg @ 0x12201f580] buffer underflow st=0 bufi=118 size=2073
pts:464400 pts_time:5.16 dts:460800 dts_time:5.12 duration:0 duration_time:0 stream_index:0
[mpeg @ 0x12201f580] buffer underflow st=0 bufi=77 size=2987
[mpeg @ 0x12201f580] buffer underflow st=0 bufi=2118 size=2987
pts:468000 pts_time:5.2 dts:464400 dts_time:5.16 duration:0 duration_time:0 stream_index:0
[mpeg @ 0x12201f580] buffer underflow st=0 bufi=1163 size=2357
pts:471600 pts_time:5.24 dts:468000 dts_time:5.2 duration:0 duration_time:0 stream_index:0
[mpeg @ 0x12201f580] buffer underflow st=0 bufi=838 size=10784
[mpeg @ 0x12201f580] buffer underflow st=0 bufi=2879 size=10784
[mpeg @ 0x12201f580] buffer underflow st=0 bufi=4920 size=10784
[mpeg @ 0x12201f580] buffer underflow st=0 bufi=6961 size=10784
[mpeg @ 0x12201f580] buffer underflow st=0 bufi=9002 size=10784
pts:475200 pts_time:5.28 dts:471600 dts_time:5.24 duration:0 duration_time:0 stream_index:0
[mpeg @ 0x12201f580] buffer underflow st=0 bufi=250 size=3472
[mpeg @ 0x12201f580] buffer underflow st=0 bufi=2291 size=3472
pts:478800 pts_time:5.32 dts:475200 dts_time:5.28 duration:0 duration_time:0 stream_index:0
[mpeg @ 0x12201f580] buffer underflow st=0 bufi=851 size=2350
pts:482400 pts_time:5.36 dts:478800 dts_time:5.32 duration:0 duration_time:0 stream_index:0
[mpeg @ 0x12201f580] buffer underflow st=0 bufi=533 size=3399
[mpeg @ 0x12201f580] buffer underflow st=0 bufi=2574 size=3399
pts:486000 pts_time:5.4 dts:482400 dts_time:5.36 duration:0 duration_time:0 stream_index:0
[mpeg @ 0x12201f580] buffer underflow st=0 bufi=1207 size=2065
pts:489600 pts_time:5.44 dts:486000 dts_time:5.4 duration:0 duration_time:0 stream_index:0
[mpeg @ 0x12201f580] buffer underflow st=0 bufi=1174 size=1997
pts:493200 pts_time:5.48 dts:489600 dts_time:5.44 duration:0 duration_time:0 stream_index:0
[mpeg @ 0x12201f580] buffer underflow st=0 bufi=1209 size=3455
[mpeg @ 0x12201f580] buffer underflow st=0 bufi=3250 size=3455
pts:496800 pts_time:5.52 dts:493200 dts_time:5.48 duration:0 duration_time:0 stream_index:0
[mpeg @ 0x12201f580] buffer underflow st=0 bufi=1827 size=2210
pts:500400 pts_time:5.56 dts:496800 dts_time:5.52 duration:0 duration_time:0 stream_index:0
[mpeg @ 0x12201f580] buffer underflow st=0 bufi=1649 size=2768
pts:504000 pts_time:5.6 dts:500400 dts_time:5.56 duration:0 duration_time:0 stream_index:0
[mpeg @ 0x12201f580] buffer underflow st=0 bufi=913 size=2367
pts:507600 pts_time:5.64 dts:504000 dts_time:5.6 duration:0 duration_time:0 stream_index:0
[mpeg @ 0x12201f580] buffer underflow st=0 bufi=578 size=2142
pts:511200 pts_time:5.68 dts:507600 dts_time:5.64 duration:0 duration_time:0 stream_index:0
[mpeg @ 0x12201f580] buffer underflow st=0 bufi=468 size=2380
pts:514800 pts_time:5.72 dts:511200 dts_time:5.68 duration:0 duration_time:0 stream_index:0
[mpeg @ 0x12201f580] buffer underflow st=0 bufi=120 size=8962
[mpeg @ 0x12201f580] buffer underflow st=0 bufi=2161 size=8962
[mpeg @ 0x12201f580] buffer underflow st=0 bufi=4202 size=8962
[mpeg @ 0x12201f580] buffer underflow st=0 bufi=6243 size=8962
[mpeg @ 0x12201f580] buffer underflow st=0 bufi=8284 size=8962
pts:518400 pts_time:5.76 dts:514800 dts_time:5.72 duration:0 duration_time:0 stream_index:0
[mpeg @ 0x12201f580] buffer underflow st=0 bufi=1354 size=1870
pts:522000 pts_time:5.8 dts:518400 dts_time:5.76 duration:0 duration_time:0 stream_index:0
[mpeg @ 0x12201f580] buffer underflow st=0 bufi=1516 size=2064
pts:525600 pts_time:5.84 dts:522000 dts_time:5.8 duration:0 duration_time:0 stream_index:0
[mpeg @ 0x12201f580] buffer underflow st=0 bufi=1484 size=2759
pts:529200 pts_time:5.88 dts:525600 dts_time:5.84 duration:0 duration_time:0 stream_index:0
[mpeg @ 0x12201f580] buffer underflow st=0 bufi=757 size=1679
pts:532800 pts_time:5.92 dts:529200 dts_time:5.88 duration:0 duration_time:0 stream_index:0
[mpeg @ 0x12201f580] buffer underflow st=0 bufi=1110 size=1903
pts:536400 pts_time:5.96 dts:532800 dts_time:5.92 duration:0 duration_time:0 stream_index:0
[mpeg @ 0x12201f580] buffer underflow st=0 bufi=1239 size=2575
pts:540000 pts_time:6 dts:536400 dts_time:5.96 duration:0 duration_time:0 stream_index:0
[mpeg @ 0x12201f580] buffer underflow st=0 bufi=696 size=2145
pts:543600 pts_time:6.04 dts:540000 dts_time:6 duration:0 duration_time:0 stream_index:0
[mpeg @ 0x12201f580] buffer underflow st=0 bufi=583 size=2179
pts:547200 pts_time:6.08 dts:543600 dts_time:6.04 duration:0 duration_time:0 stream_index:0
[mpeg @ 0x12201f580] buffer underflow st=0 bufi=436 size=1688
pts:550800 pts_time:6.12 dts:547200 dts_time:6.08 duration:0 duration_time:0 stream_index:0
[mpeg @ 0x12201f580] buffer underflow st=0 bufi=780 size=2632
pts:554400 pts_time:6.16 dts:550800 dts_time:6.12 duration:0 duration_time:0 stream_index:0
[mpeg @ 0x12201f580] buffer underflow st=0 bufi=180 size=1782
pts:558000 pts_time:6.2 dts:554400 dts_time:6.16 duration:0 duration_time:0 stream_index:0
[mpeg @ 0x12201f580] buffer underflow st=0 bufi=430 size=10423
[mpeg @ 0x12201f580] buffer underflow st=0 bufi=2471 size=10423
[mpeg @ 0x12201f580] buffer underflow st=0 bufi=4512 size=10423
[mpeg @ 0x12201f580] buffer underflow st=0 bufi=6553 size=10423
[mpeg @ 0x12201f580] buffer underflow st=0 bufi=8594 size=10423
pts:561600 pts_time:6.24 dts:558000 dts_time:6.2 duration:0 duration_time:0 stream_index:0
[mpeg @ 0x12201f580] buffer underflow st=0 bufi=191 size=2843
[mpeg @ 0x12201f580] buffer underflow st=0 bufi=2232 size=2843
pts:565200 pts_time:6.28 dts:561600 dts_time:6.24 duration:0 duration_time:0 stream_index:0
[mpeg @ 0x12201f580] buffer underflow st=0 bufi=1421 size=2054
pts:568800 pts_time:6.32 dts:565200 dts_time:6.28 duration:0 duration_time:0 stream_index:0
[mpeg @ 0x12201f580] buffer underflow st=0 bufi=1399 size=2850
pts:572400 pts_time:6.36 dts:568800 dts_time:6.32 duration:0 duration_time:0 stream_index:0
[mpeg @ 0x12201f580] buffer underflow st=0 bufi=581 size=1783
pts:576000 pts_time:6.4 dts:572400 dts_time:6.36 duration:0 duration_time:0 stream_index:0
[mpeg @ 0x12201f580] buffer underflow st=0 bufi=830 size=1607
pts:579600 pts_time:6.44 dts:576000 dts_time:6.4 duration:0 duration_time:0 stream_index:0
[mpeg @ 0x12201f580] buffer underflow st=0 bufi=1255 size=2830
pts:583200 pts_time:6.48 dts:579600 dts_time:6.44 duration:0 duration_time:0 stream_index:0
[mpeg @ 0x12201f580] buffer underflow st=0 bufi=457 size=1824
pts:586800 pts_time:6.52 dts:583200 dts_time:6.48 duration:0 duration_time:0 stream_index:0
[mpeg @ 0x12201f580] buffer underflow st=0 bufi=665 size=2322
pts:590400 pts_time:6.56 dts:586800 dts_time:6.52 duration:0 duration_time:0 stream_index:0
[mpeg @ 0x12201f580] buffer underflow st=0 bufi=375 size=1928
pts:594000 pts_time:6.6 dts:590400 dts_time:6.56 duration:0 duration_time:0 stream_index:0
[mpeg @ 0x12201f580] buffer underflow st=0 bufi=479 size=2349
pts:597600 pts_time:6.64 dts:594000 dts_time:6.6 duration:0 duration_time:0 stream_index:0
[mpeg @ 0x12201f580] buffer underflow st=0 bufi=162 size=2110
pts:601200 pts_time:6.68 dts:597600 dts_time:6.64 duration:0 duration_time:0 stream_index:0
[mpeg @ 0x12201f580] buffer underflow st=0 bufi=84 size=8958
[mpeg @ 0x12201f580] buffer underflow st=0 bufi=2125 size=8958
[mpeg @ 0x12201f580] buffer underflow st=0 bufi=4166 size=8958
[mpeg @ 0x12201f580] buffer underflow st=0 bufi=6207 size=8958
[mpeg @ 0x12201f580] buffer underflow st=0 bufi=8248 size=8958
pts:604800 pts_time:6.72 dts:601200 dts_time:6.68 duration:0 duration_time:0 stream_index:0
[mpeg @ 0x12201f580] buffer underflow st=0 bufi=1322 size=1835
pts:608400 pts_time:6.76 dts:604800 dts_time:6.72 duration:0 duration_time:0 stream_index:0
[mpeg @ 0x12201f580] buffer underflow st=0 bufi=1519 size=2036
pts:612000 pts_time:6.8 dts:608400 dts_time:6.76 duration:0 duration_time:0 stream_index:0
[mpeg @ 0x12201f580] buffer underflow st=0 bufi=1515 size=2707
pts:615600 pts_time:6.84 dts:612000 dts_time:6.8 duration:0 duration_time:0 stream_index:0
[mpeg @ 0x12201f580] buffer underflow st=0 bufi=840 size=1685
pts:619200 pts_time:6.88 dts:615600 dts_time:6.84 duration:0 duration_time:0 stream_index:0
[mpeg @ 0x12201f580] buffer underflow st=0 bufi=1187 size=1870
pts:622800 pts_time:6.92 dts:619200 dts_time:6.88 duration:0 duration_time:0 stream_index:0
[mpeg @ 0x12201f580] buffer underflow st=0 bufi=1349 size=2537
pts:626400 pts_time:6.96 dts:622800 dts_time:6.92 duration:0 duration_time:0 stream_index:0
[mpeg @ 0x12201f580] buffer underflow st=0 bufi=844 size=2052
pts:630000 pts_time:7 dts:626400 dts_time:6.96 duration:0 duration_time:0 stream_index:0
[mpeg @ 0x12201f580] buffer underflow st=0 bufi=824 size=2262
pts:633600 pts_time:7.04 dts:630000 dts_time:7 duration:0 duration_time:0 stream_index:0
[mpeg @ 0x12201f580] buffer underflow st=0 bufi=594 size=1685
pts:637200 pts_time:7.08 dts:633600 dts_time:7.04 duration:0 duration_time:0 stream_index:0
[mpeg @ 0x12201f580] buffer underflow st=0 bufi=941 size=2521
pts:640800 pts_time:7.12 dts:637200 dts_time:7.08 duration:0 duration_time:0 stream_index:0
[mpeg @ 0x12201f580] buffer underflow st=0 bufi=452 size=1878
pts:644400 pts_time:7.16 dts:640800 dts_time:7.12 duration:0 duration_time:0 stream_index:0
[mpeg @ 0x12201f580] buffer underflow st=0 bufi=606 size=10779
[mpeg @ 0x12201f580] buffer underflow st=0 bufi=2647 size=10779
[mpeg @ 0x12201f580] buffer underflow st=0 bufi=4688 size=10779
[mpeg @ 0x12201f580] buffer underflow st=0 bufi=6729 size=10779
[mpeg @ 0x12201f580] buffer underflow st=0 bufi=8770 size=10779
pts:648000 pts_time:7.2 dts:644400 dts_time:7.16 duration:0 duration_time:0 stream_index:0
[mpeg @ 0x12201f580] buffer underflow st=0 bufi=23 size=3415
[mpeg @ 0x12201f580] buffer underflow st=0 bufi=2064 size=3415
pts:651600 pts_time:7.24 dts:648000 dts_time:7.2 duration:0 duration_time:0 stream_index:0
[mpeg @ 0x12201f580] buffer underflow st=0 bufi=681 size=2343
pts:655200 pts_time:7.28 dts:651600 dts_time:7.24 duration:0 duration_time:0 stream_index:0
[mpeg @ 0x12201f580] buffer underflow st=0 bufi=370 size=3421
[mpeg @ 0x12201f580] buffer underflow st=0 bufi=2411 size=3421
pts:658800 pts_time:7.32 dts:655200 dts_time:7.28 duration:0 duration_time:0 stream_index:0
[mpeg @ 0x12201f580] buffer underflow st=0 bufi=1022 size=2102
pts:662400 pts_time:7.36 dts:658800 dts_time:7.32 duration:0 duration_time:0 stream_index:0
[mpeg @ 0x12201f580] buffer underflow st=0 bufi=952 size=2029
pts:666000 pts_time:7.4 dts:662400 dts_time:7.36 duration:0 duration_time:0 stream_index:0
[mpeg @ 0x12201f580] buffer underflow st=0 bufi=955 size=3437
[mpeg @ 0x12201f580] buffer underflow st=0 bufi=2996 size=3437
pts:669600 pts_time:7.44 dts:666000 dts_time:7.4 duration:0 duration_time:0 stream_index:0
[mpeg @ 0x12201f580] buffer underflow st=0 bufi=1591 size=2235
pts:673200 pts_time:7.48 dts:669600 dts_time:7.44 duration:0 duration_time:0 stream_index:0
[mpeg @ 0x12201f580] buffer underflow st=0 bufi=1388 size=2779
pts:676800 pts_time:7.52 dts:673200 dts_time:7.48 duration:0 duration_time:0 stream_index:0
[mpeg @ 0x12201f580] buffer underflow st=0 bufi=641 size=2835
[mpeg @ 0x12201f580] buffer underflow st=0 bufi=2682 size=2835
pts:680400 pts_time:7.56 dts:676800 dts_time:7.52 duration:0 duration_time:0 stream_index:0
[mpeg @ 0x12201f580] buffer underflow st=0 bufi=1879 size=2651
pts:684000 pts_time:7.6 dts:680400 dts_time:7.56 duration:0 duration_time:0 stream_index:0
[mpeg @ 0x12201f580] buffer underflow st=0 bufi=1260 size=2986
pts:687600 pts_time:7.64 dts:684000 dts_time:7.6 duration:0 duration_time:0 stream_index:0
[mpeg @ 0x12201f580] buffer underflow st=0 bufi=306 size=9022
[mpeg @ 0x12201f580] buffer underflow st=0 bufi=2347 size=9022
[mpeg @ 0x12201f580] buffer underflow st=0 bufi=4388 size=9022
[mpeg @ 0x12201f580] buffer underflow st=0 bufi=6429 size=9022
[mpeg @ 0x12201f580] buffer underflow st=0 bufi=8458 size=9022
pts:691200 pts_time:7.68 dts:687600 dts_time:7.64 duration:0 duration_time:0 stream_index:0
pts:694800 pts_time:7.72 dts:691200 dts_time:7.68 duration:0 duration_time:0 stream_index:0
[mpeg @ 0x12201f580] buffer underflow st=0 bufi=109 size=1619
pts:698400 pts_time:7.76 dts:694800 dts_time:7.72 duration:0 duration_time:0 stream_index:0
[mpeg @ 0x12201f580] buffer underflow st=0 bufi=522 size=2342
pts:702000 pts_time:7.8 dts:698400 dts_time:7.76 duration:0 duration_time:0 stream_index:0
[mpeg @ 0x12201f580] buffer underflow st=0 bufi=212 size=1519
pts:705600 pts_time:7.84 dts:702000 dts_time:7.8 duration:0 duration_time:0 stream_index:0
[mpeg @ 0x12201f580] buffer underflow st=0 bufi=725 size=1604
pts:709200 pts_time:7.88 dts:705600 dts_time:7.84 duration:0 duration_time:0 stream_index:0
[mpeg @ 0x12201f580] buffer underflow st=0 bufi=1153 size=2250
pts:712800 pts_time:7.92 dts:709200 dts_time:7.88 duration:0 duration_time:0 stream_index:0
[mpeg @ 0x12201f580] buffer underflow st=0 bufi=935 size=1744
pts:716400 pts_time:7.96 dts:712800 dts_time:7.92 duration:0 duration_time:0 stream_index:0
[mpeg @ 0x12201f580] buffer underflow st=0 bufi=1223 size=2019
pts:720000 pts_time:8 dts:716400 dts_time:7.96 duration:0 duration_time:0 stream_index:0
[mpeg @ 0x12201f580] buffer underflow st=0 bufi=1236 size=1875
pts:723600 pts_time:8.04 dts:720000 dts_time:8 duration:0 duration_time:0 stream_index:0
[mpeg @ 0x12201f580] buffer underflow st=0 bufi=1393 size=2728
pts:727200 pts_time:8.08 dts:723600 dts_time:8.04 duration:0 duration_time:0 stream_index:0
[mpeg @ 0x12201f580] buffer underflow st=0 bufi=697 size=1925
pts:730800 pts_time:8.12 dts:727200 dts_time:8.08 duration:0 duration_time:0 stream_index:0
[mpeg @ 0x12201f580] buffer underflow st=0 bufi=804 size=10516
[mpeg @ 0x12201f580] buffer underflow st=0 bufi=2845 size=10516
[mpeg @ 0x12201f580] buffer underflow st=0 bufi=4886 size=10516
[mpeg @ 0x12201f580] buffer underflow st=0 bufi=6927 size=10516
[mpeg @ 0x12201f580] buffer underflow st=0 bufi=8968 size=10516
pts:734400 pts_time:8.16 dts:730800 dts_time:8.12 duration:0 duration_time:0 stream_index:0
[mpeg @ 0x12201f580] buffer underflow st=0 bufi=484 size=2862
[mpeg @ 0x12201f580] buffer underflow st=0 bufi=2525 size=2862
pts:738000 pts_time:8.2 dts:734400 dts_time:8.16 duration:0 duration_time:0 stream_index:0
[mpeg @ 0x12201f580] buffer underflow st=0 bufi=1695 size=2062
pts:741600 pts_time:8.24 dts:738000 dts_time:8.2 duration:0 duration_time:0 stream_index:0
[mpeg @ 0x12201f580] buffer underflow st=0 bufi=1665 size=2890
pts:745200 pts_time:8.28 dts:741600 dts_time:8.24 duration:0 duration_time:0 stream_index:0
[mpeg @ 0x12201f580] buffer underflow st=0 bufi=807 size=1834
pts:748800 pts_time:8.32 dts:745200 dts_time:8.28 duration:0 duration_time:0 stream_index:0
[mpeg @ 0x12201f580] buffer underflow st=0 bufi=1005 size=1665
pts:752400 pts_time:8.36 dts:748800 dts_time:8.32 duration:0 duration_time:0 stream_index:0
[mpeg @ 0x12201f580] buffer underflow st=0 bufi=1372 size=2722
pts:756000 pts_time:8.4 dts:752400 dts_time:8.36 duration:0 duration_time:0 stream_index:0
[mpeg @ 0x12201f580] buffer underflow st=0 bufi=682 size=1777
pts:759600 pts_time:8.44 dts:756000 dts_time:8.4 duration:0 duration_time:0 stream_index:0
[mpeg @ 0x12201f580] buffer underflow st=0 bufi=937 size=2440
pts:763200 pts_time:8.48 dts:759600 dts_time:8.44 duration:0 duration_time:0 stream_index:0
[mpeg @ 0x12201f580] buffer underflow st=0 bufi=529 size=1958
pts:766800 pts_time:8.52 dts:763200 dts_time:8.48 duration:0 duration_time:0 stream_index:0
[mpeg @ 0x12201f580] buffer underflow st=0 bufi=603 size=2253
pts:770400 pts_time:8.56 dts:766800 dts_time:8.52 duration:0 duration_time:0 stream_index:0
[mpeg @ 0x12201f580] buffer underflow st=0 bufi=382 size=2224
pts:774000 pts_time:8.6 dts:770400 dts_time:8.56 duration:0 duration_time:0 stream_index:0
[mpeg @ 0x12201f580] buffer underflow st=0 bufi=190 size=9004
[mpeg @ 0x12201f580] buffer underflow st=0 bufi=2231 size=9004
[mpeg @ 0x12201f580] buffer underflow st=0 bufi=4272 size=9004
[mpeg @ 0x12201f580] buffer underflow st=0 bufi=6313 size=9004
[mpeg @ 0x12201f580] buffer underflow st=0 bufi=8354 size=9004
pts:777600 pts_time:8.64 dts:774000 dts_time:8.6 duration:0 duration_time:0 stream_index:0
[mpeg @ 0x12201f580] buffer underflow st=0 bufi=1382 size=1834
pts:781200 pts_time:8.68 dts:777600 dts_time:8.64 duration:0 duration_time:0 stream_index:0
[mpeg @ 0x12201f580] buffer underflow st=0 bufi=1580 size=2037
pts:784800 pts_time:8.72 dts:781200 dts_time:8.68 duration:0 duration_time:0 stream_index:0
[mpeg @ 0x12201f580] buffer underflow st=0 bufi=1575 size=2776
pts:788400 pts_time:8.76 dts:784800 dts_time:8.72 duration:0 duration_time:0 stream_index:0
[mpeg @ 0x12201f580] buffer underflow st=0 bufi=831 size=1690
pts:792000 pts_time:8.8 dts:788400 dts_time:8.76 duration:0 duration_time:0 stream_index:0
[mpeg @ 0x12201f580] buffer underflow st=0 bufi=1173 size=1945
pts:795600 pts_time:8.84 dts:792000 dts_time:8.8 duration:0 duration_time:0 stream_index:0
[mpeg @ 0x12201f580] buffer underflow st=0 bufi=1260 size=2529
pts:799200 pts_time:8.88 dts:795600 dts_time:8.84 duration:0 duration_time:0 stream_index:0
[mpeg @ 0x12201f580] buffer underflow st=0 bufi=763 size=2057
pts:802800 pts_time:8.92 dts:799200 dts_time:8.88 duration:0 duration_time:0 stream_index:0
[mpeg @ 0x12201f580] buffer underflow st=0 bufi=738 size=2242
pts:806400 pts_time:8.96 dts:802800 dts_time:8.92 duration:0 duration_time:0 stream_index:0
[mpeg @ 0x12201f580] buffer underflow st=0 bufi=528 size=1691
pts:810000 pts_time:9 dts:806400 dts_time:8.96 duration:0 duration_time:0 stream_index:0
[mpeg @ 0x12201f580] buffer underflow st=0 bufi=869 size=2424
pts:813600 pts_time:9.04 dts:810000 dts_time:9 duration:0 duration_time:0 stream_index:0
[mpeg @ 0x12201f580] buffer underflow st=0 bufi=477 size=2025
pts:817200 pts_time:9.08 dts:813600 dts_time:9.04 duration:0 duration_time:0 stream_index:0
[mpeg @ 0x12201f580] buffer underflow st=0 bufi=484 size=10423
[mpeg @ 0x12201f580] buffer underflow st=0 bufi=2525 size=10423
[mpeg @ 0x12201f580] buffer underflow st=0 bufi=4566 size=10423
[mpeg @ 0x12201f580] buffer underflow st=0 bufi=6607 size=10423
[mpeg @ 0x12201f580] buffer underflow st=0 bufi=8648 size=10423
pts:820800 pts_time:9.12 dts:817200 dts_time:9.08 duration:0 duration_time:0 stream_index:0
[mpeg @ 0x12201f580] buffer underflow st=0 bufi=257 size=2866
[mpeg @ 0x12201f580] buffer underflow st=0 bufi=2298 size=2866
pts:824400 pts_time:9.16 dts:820800 dts_time:9.12 duration:0 duration_time:0 stream_index:0
[mpeg @ 0x12201f580] buffer underflow st=0 bufi=1464 size=2069
pts:828000 pts_time:9.2 dts:824400 dts_time:9.16 duration:0 duration_time:0 stream_index:0
[mpeg @ 0x12201f580] buffer underflow st=0 bufi=1415 size=3257
pts:831600 pts_time:9.24 dts:828000 dts_time:9.2 duration:0 duration_time:0 stream_index:0
[mpeg @ 0x12201f580] buffer underflow st=0 bufi=190 size=2034
pts:835200 pts_time:9.28 dts:831600 dts_time:9.24 duration:0 duration_time:0 stream_index:0
[mpeg @ 0x12201f580] buffer underflow st=0 bufi=188 size=2051
pts:838800 pts_time:9.32 dts:835200 dts_time:9.28 duration:0 duration_time:0 stream_index:0
[mpeg @ 0x12201f580] buffer underflow st=0 bufi=169 size=3452
[mpeg @ 0x12201f580] buffer underflow st=0 bufi=2210 size=3452
pts:842400 pts_time:9.36 dts:838800 dts_time:9.32 duration:0 duration_time:0 stream_index:0
[mpeg @ 0x12201f580] buffer underflow st=0 bufi=790 size=2178
pts:846000 pts_time:9.4 dts:842400 dts_time:9.36 duration:0 duration_time:0 stream_index:0
[mpeg @ 0x12201f580] buffer underflow st=0 bufi=644 size=2725
[mpeg @ 0x12201f580] buffer underflow st=0 bufi=2685 size=2725
pts:849600 pts_time:9.44 dts:846000 dts_time:9.4 duration:0 duration_time:0 stream_index:0
[mpeg @ 0x12201f580] buffer underflow st=0 bufi=1992 size=2686
pts:853200 pts_time:9.48 dts:849600 dts_time:9.44 duration:0 duration_time:0 stream_index:0
[mpeg @ 0x12201f580] buffer underflow st=0 bufi=1338 size=2563
pts:856800 pts_time:9.52 dts:853200 dts_time:9.48 duration:0 duration_time:0 stream_index:0
[mpeg @ 0x12201f580] buffer underflow st=0 bufi=807 size=2845
pts:860400 pts_time:9.56 dts:856800 dts_time:9.52 duration:0 duration_time:0 stream_index:0
[mpeg @ 0x12201f580] buffer underflow st=0 bufi=3 size=9007
[mpeg @ 0x12201f580] buffer underflow st=0 bufi=2044 size=9007
[mpeg @ 0x12201f580] buffer underflow st=0 bufi=4085 size=9007
[mpeg @ 0x12201f580] buffer underflow st=0 bufi=6126 size=9007
[mpeg @ 0x12201f580] buffer underflow st=0 bufi=8167 size=9007
pts:864000 pts_time:9.6 dts:860400 dts_time:9.56 duration:0 duration_time:0 stream_index:0
[mpeg @ 0x12201f580] buffer underflow st=0 bufi=1192 size=2164
pts:867600 pts_time:9.64 dts:864000 dts_time:9.6 duration:0 duration_time:0 stream_index:0
[mpeg @ 0x12201f580] buffer underflow st=0 bufi=1060 size=2610
pts:871200 pts_time:9.68 dts:867600 dts_time:9.64 duration:0 duration_time:0 stream_index:0
[mpeg @ 0x12201f580] buffer underflow st=0 bufi=482 size=3554
[mpeg @ 0x12201f580] buffer underflow st=0 bufi=2523 size=3554
pts:874800 pts_time:9.72 dts:871200 dts_time:9.68 duration:0 duration_time:0 stream_index:0
[mpeg @ 0x12201f580] buffer underflow st=0 bufi=1001 size=1535
pts:878400 pts_time:9.76 dts:874800 dts_time:9.72 duration:0 duration_time:0 stream_index:0
[mpeg @ 0x12201f580] buffer underflow st=0 bufi=1498 size=2117
pts:882000 pts_time:9.8 dts:878400 dts_time:9.76 duration:0 duration_time:0 stream_index:0
[mpeg @ 0x12201f580] buffer underflow st=0 bufi=1413 size=2625
pts:885600 pts_time:9.84 dts:882000 dts_time:9.8 duration:0 duration_time:0 stream_index:0
[mpeg @ 0x12201f580] buffer underflow st=0 bufi=820 size=2235
pts:889200 pts_time:9.88 dts:885600 dts_time:9.84 duration:0 duration_time:0 stream_index:0
[mpeg @ 0x12201f580] buffer underflow st=0 bufi=617 size=2018
pts:892800 pts_time:9.92 dts:889200 dts_time:9.88 duration:0 duration_time:0 stream_index:0
[mpeg @ 0x12201f580] buffer underflow st=0 bufi=631 size=1810
[mpeg @ 0x12201f580] buffer underflow st=0 bufi=853 size=2051
pts:896400 pts_time:9.96 dts:892800 dts_time:9.92 duration:0 duration_time:0 stream_index:0
pts:900000 pts_time:10 dts:896400 dts_time:9.96 duration:0 duration_time:0 stream_index:0
